#define bullet_width 14
#define bullet_height 14
static unsigned char bullet_bits[] = {
   0x00, 0x00, 0x00, 0x00, 0xfc, 0x0f, 0xfc, 0x0f, 0xfc, 0x0f, 0xfc, 0x0f,
   0xfc, 0x0f, 0xfc, 0x0f, 0xfc, 0x0f, 0xfc, 0x0f, 0xfc, 0x0f, 0xfc, 0x0f,
   0x00, 0x00, 0x00, 0x00 };
