#define max_toggled_width 14
#define max_toggled_height 14
static unsigned char max_toggled_bits[] = {
   0x00, 0x00, 0x00, 0x00, 0xfc, 0x0f, 0xfc, 0x0f, 0xfc, 0x0f, 0xfc, 0x0f,
   0xfc, 0x0f, 0xfc, 0x0f, 0xfc, 0x0f, 0xfc, 0x0f, 0xfc, 0x0f, 0xfc, 0x0f,
   0x00, 0x00, 0x00, 0x00 };
