#define shade_toggled_width 14
#define shade_toggled_height 14
static unsigned char shade_toggled_bits[] = {
   0x00, 0x00, 0x00, 0x00, 0xfc, 0x0f, 0xfc, 0x0f, 0xfc, 0x0f, 0xfc, 0x0f,
   0xfc, 0x0f, 0xfc, 0x0f, 0xfc, 0x0f, 0xfc, 0x0f, 0xfc, 0x0f, 0xfc, 0x0f,
   0x00, 0x00, 0x00, 0x00 };
